<svg xmlns="http://www.w3.org/2000/svg" fill="none" viewBox="0 0 48 48"><path fill="#AFAFB9" fill-rule="evenodd" d="M24.015.03a3.505 3.505 0 00-.917 0L7.165 4.458A2.984 2.984 0 004.801 7.45v13.824c0 12.746 6.946 20.256 17.47 26.27a3.51 3.51 0 003.458 0C36.253 41.56 43.2 33.99 43.2 21.274V7.36c.03-1.445-.966-2.704-2.364-2.992L24.93.03a3.504 3.504 0 00-.916 0z" clip-rule="evenodd"/><path fill="#fff" d="M23.084.03a3.5 3.5 0 01.916 0L23.985 48s-1.19-.152-1.728-.456C11.742 41.53 4.801 34.02 4.801 21.274V7.45c-.03-1.444.965-2.703 2.363-2.992L23.084.03z" opacity=".3"/></svg>